<svg width="218" height="48" viewBox="0 0 218 48" fill="none" xmlns="http://www.w3.org/2000/svg">
<path fill-rule="evenodd" clip-rule="evenodd" d="M48 24C48 30.8588 45.1229 37.0456 40.5097 41.4194H72.3871L66.7742 48L24 48C10.7452 48 0 37.2548 0 24C0 10.7452 10.7452 0 24 0C37.2548 0 48 10.7452 48 24ZM24 15.4839C27.4206 15.4839 30.1936 12.7109 30.1936 9.29031C30.1936 5.86971 27.4206 3.09676 24 3.09676C20.5794 3.09676 17.8065 5.86971 17.8065 9.29031C17.8065 12.7109 20.5794 15.4839 24 15.4839ZM25.9355 24C25.9355 25.0689 25.069 25.9355 24 25.9355C22.9311 25.9355 22.0645 25.0689 22.0645 24C22.0645 22.9311 22.9311 22.0645 24 22.0645C25.069 22.0645 25.9355 22.9311 25.9355 24ZM11.6129 22.8387C15.0335 22.8387 17.8065 20.0658 17.8065 16.6452C17.8065 13.2245 15.0335 10.4516 11.6129 10.4516C8.1923 10.4516 5.41936 13.2245 5.41936 16.6452C5.41936 20.0658 8.1923 22.8387 11.6129 22.8387ZM17.4193 30.9677C17.4193 34.3883 14.6464 37.1613 11.2258 37.1613C7.80519 37.1613 5.03225 34.3883 5.03225 30.9677C5.03225 27.5471 7.80519 24.7742 11.2258 24.7742C14.6464 24.7742 17.4193 27.5471 17.4193 30.9677ZM36.3871 22.8387C39.8077 22.8387 42.5807 20.0658 42.5807 16.6452C42.5807 13.2245 39.8077 10.4516 36.3871 10.4516C32.9665 10.4516 30.1936 13.2245 30.1936 16.6452C30.1936 20.0658 32.9665 22.8387 36.3871 22.8387ZM42.9677 30.9677C42.9677 34.3883 40.1948 37.1613 36.7742 37.1613C33.3536 37.1613 30.5806 34.3883 30.5806 30.9677C30.5806 27.5471 33.3536 24.7742 36.7742 24.7742C40.1948 24.7742 42.9677 27.5471 42.9677 30.9677ZM24 44.9032C27.4206 44.9032 30.1936 42.1303 30.1936 38.7097C30.1936 35.2891 27.4206 32.5161 24 32.5161C20.5794 32.5161 17.8065 35.2891 17.8065 38.7097C17.8065 42.1303 20.5794 44.9032 24 44.9032ZM120.508 33.6774V7.1492H123.593V30.9194H135.369V33.6774H120.508ZM99.8588 33.6774H114.629V30.9556H102.944V21.1391H113.958V18.4536H102.944V9.87097H114.629V7.1492H99.8588V33.6774ZM93.9798 33.6774H79.2097V7.1492H93.9798V9.87097H82.2944V18.4536H93.3085V21.1391H82.2944V30.9556H93.9798V33.6774ZM68.8306 7.96573C67.4153 7.42138 65.6189 7.1492 63.4415 7.1492H56.2742V33.6774H59.3588V22.6089H64.875L71.3709 33.6774H74.9637L67.6875 21.7561C68.6189 21.4415 69.4959 20.994 70.3185 20.4133C71.1411 19.8327 71.8064 19.0766 72.3145 18.1452C72.8226 17.2016 73.0766 16.0282 73.0766 14.625C73.0766 12.9194 72.7258 11.5161 72.0242 10.4153C71.3226 9.31452 70.258 8.49799 68.8306 7.96573ZM59.3588 9.81654H63.2601C65.5101 9.81654 67.1734 10.1915 68.25 10.9415C69.3387 11.6915 69.883 12.9677 69.883 14.7702C69.883 16.4879 69.3689 17.7883 68.3407 18.6714C67.3246 19.5544 65.7338 19.996 63.5685 19.996H59.3588V9.81654ZM217.748 33.6774H203.25V7.1492H217.748V8.8367H205.119V18.8891H217.04V20.5766H205.119V31.9899H217.748V33.6774ZM172.911 9.18145L182.655 33.6774H184.143L193.923 9.21774H194.032C194.008 9.67742 193.984 10.1552 193.96 10.6512C193.948 11.1351 193.936 11.625 193.923 12.121C193.911 12.6169 193.905 13.1008 193.905 13.5726V33.6774H195.738V7.1492H192.98L183.508 30.7742H183.399L174 7.1492H171.169V33.6774H172.948V13.7903C172.948 13.2097 172.942 12.6532 172.929 12.121C172.917 11.5887 172.899 11.0806 172.875 10.5968C172.863 10.1008 172.845 9.62903 172.821 9.18145H172.911ZM161.807 33.6774V7.1492H163.675V33.6774H161.807ZM147.363 33.6774H149.25V8.8367H157.851V7.1492H138.762V8.8367H147.363V33.6774Z" fill="white"/>
</svg>
