<svg id="Layer_1" data-name="Layer 1" xmlns="http://www.w3.org/2000/svg" viewBox="0 0 154.47 60.27"><defs><style>.cls-1,.cls-2{fill:#424242;}.cls-2{fill-rule:evenodd;}</style></defs><path class="cls-1" d="M141.21,43.19h3.22L147.67,51l3.59-7.83h3.21l-7.82,17.08h-3.21L146,54.78Zm-4.28,4.69a3.13,3.13,0,0,0-1.22-1.67,3.62,3.62,0,0,0-2.13-.64,3.84,3.84,0,0,0-2.31.72,4.13,4.13,0,0,0-1.15,1.59Zm3.12,2.45H130a3.46,3.46,0,0,0,1.16,2.13,3.62,3.62,0,0,0,2.41.79,4.12,4.12,0,0,0,3-1.24l2.63,1.25a6.19,6.19,0,0,1-2.36,2.07,7.32,7.32,0,0,1-3.26.67,6.43,6.43,0,0,1-4.78-1.85,6.3,6.3,0,0,1-1.85-4.64,6.52,6.52,0,0,1,1.85-4.74,6.19,6.19,0,0,1,4.62-1.89,6.44,6.44,0,0,1,4.8,1.88,6.76,6.76,0,0,1,1.85,5Zm-26.16-12H117v10l4.63-5.15h3.91l-5.36,6,6,6.54h-3.9L117,49.93V55.7h-3.14ZM99.73,43.19h3.13v1.29a7.79,7.79,0,0,1,1.94-1.25,4.77,4.77,0,0,1,1.77-.35,4.34,4.34,0,0,1,3.17,1.3,4.49,4.49,0,0,1,1.09,3.26V55.7h-3.11V50.23a14.11,14.11,0,0,0-.2-3,2.1,2.1,0,0,0-.7-1.12,2,2,0,0,0-1.23-.38,2.32,2.32,0,0,0-1.64.63,3.45,3.45,0,0,0-1,1.76,14.35,14.35,0,0,0-.14,2.54v5H99.73Zm-9.15,2.64a3.24,3.24,0,0,0-2.43,1,3.6,3.6,0,0,0-1,2.6,3.66,3.66,0,0,0,1,2.63,3.21,3.21,0,0,0,2.44,1,3.29,3.29,0,0,0,2.46-1,4,4,0,0,0,0-5.23A3.25,3.25,0,0,0,90.58,45.83Zm0-2.95a6.65,6.65,0,0,1,3.33.89,6.54,6.54,0,0,1,2.43,9,6.31,6.31,0,0,1-2.4,2.41,6.71,6.71,0,0,1-3.35.86A6.26,6.26,0,0,1,86,54.1,6.36,6.36,0,0,1,84,49.46a6.57,6.57,0,0,1,6.5-6.58Zm-28.05.31h3.13v1.46a5.36,5.36,0,0,1,1.79-1.33,5.3,5.3,0,0,1,2.15-.44,4,4,0,0,1,2.12.58,4.2,4.2,0,0,1,1.53,1.69,5.11,5.11,0,0,1,1.84-1.69,5,5,0,0,1,2.38-.58,4.46,4.46,0,0,1,2.35.62,3.66,3.66,0,0,1,1.46,1.62,8.78,8.78,0,0,1,.44,3.25V55.7H78.55V49.38A5.4,5.4,0,0,0,78,46.51a1.86,1.86,0,0,0-1.61-.75,2.44,2.44,0,0,0-1.46.46,2.67,2.67,0,0,0-1,1.26,7.71,7.71,0,0,0-.32,2.6V55.7H70.54v-6a8.28,8.28,0,0,0-.25-2.42,2.2,2.2,0,0,0-.75-1.12,2,2,0,0,0-1.2-.36,2.4,2.4,0,0,0-1.44.46,2.73,2.73,0,0,0-1,1.3,7.78,7.78,0,0,0-.32,2.63V55.7H62.49Zm-4.5,5a5.35,5.35,0,0,0-.94-2,4.4,4.4,0,0,0-1.64-1.24,5,5,0,0,0-2.14-.48,4.64,4.64,0,0,0-3.19,1.19,5.35,5.35,0,0,0-1.47,2.58Zm0,3.37,1.36.72a7.38,7.38,0,0,1-1.54,2.1,6.31,6.31,0,0,1-2,1.22,7,7,0,0,1-2.49.41,6,6,0,0,1-4.8-2,6.73,6.73,0,0,1-1.73-4.52,6.62,6.62,0,0,1,1.47-4.23,6,6,0,0,1,5-2.37,6.19,6.19,0,0,1,5.13,2.43,6.72,6.72,0,0,1,1.39,4.26H48.45a5,5,0,0,0,1.4,3.56,4.47,4.47,0,0,0,3.34,1.39,5.46,5.46,0,0,0,1.87-.33,5,5,0,0,0,1.54-.87A7.71,7.71,0,0,0,58,51.55ZM37.32,44.44A4.88,4.88,0,0,0,33,46.94a5.17,5.17,0,0,0-.67,2.52A5.07,5.07,0,0,0,33,52a4.86,4.86,0,0,0,1.81,1.87,4.76,4.76,0,0,0,2.45.67,5,5,0,0,0,2.5-.66,4.63,4.63,0,0,0,1.82-1.8,5.16,5.16,0,0,0,.64-2.55,5,5,0,0,0-1.43-3.62A4.72,4.72,0,0,0,37.32,44.44Zm6.44-6.08V55.7h-1.6V53.55a6.76,6.76,0,0,1-2.27,1.84,6.37,6.37,0,0,1-7.28-1.31,6.42,6.42,0,0,1-1.87-4.67,6.33,6.33,0,0,1,1.89-4.61,6.17,6.17,0,0,1,4.56-1.92,5.82,5.82,0,0,1,2.78.66,6.35,6.35,0,0,1,2.19,2V38.36Zm-22,6.1a4.63,4.63,0,0,0-3.45,1.48,4.93,4.93,0,0,0-1.44,3.57A5.11,5.11,0,0,0,17.55,52a4.78,4.78,0,0,0,1.77,1.8,5,5,0,0,0,2.46.63,4.89,4.89,0,0,0,2.45-.63A4.73,4.73,0,0,0,26,52a5.11,5.11,0,0,0,.66-2.53,4.94,4.94,0,0,0-1.45-3.57A4.64,4.64,0,0,0,21.78,44.46Zm0-1.58A6.22,6.22,0,0,1,26.58,45a6.68,6.68,0,0,1-.1,9.08,6.13,6.13,0,0,1-4.69,2,6.18,6.18,0,0,1-4.72-2A6.67,6.67,0,0,1,17,45,6.23,6.23,0,0,1,21.79,42.88Zm-9,2.91-1.28.79A5.39,5.39,0,0,0,7,44.39a5.27,5.27,0,0,0-3.82,1.47,4.76,4.76,0,0,0-1.51,3.56A5.08,5.08,0,0,0,2.32,52a5,5,0,0,0,1.92,1.87A5.63,5.63,0,0,0,7,54.52a5.54,5.54,0,0,0,4.52-2.19l1.28.84a6.08,6.08,0,0,1-2.42,2.09A7.67,7.67,0,0,1,6.9,56,6.82,6.82,0,0,1,2,54.12a6.08,6.08,0,0,1-2-4.57,6.54,6.54,0,0,1,.92-3.37,6.38,6.38,0,0,1,2.52-2.42A7.28,7.28,0,0,1,7,42.88a7.74,7.74,0,0,1,2.41.38,6.44,6.44,0,0,1,2,1A5.14,5.14,0,0,1,12.77,45.79Z"/><path class="cls-2" d="M65.3,16.52l.1-.15a1.3,1.3,0,0,0-.1.15"/><path class="cls-2" d="M73.54,21.89c2-1,4-5.17,1.27-6.3A10.54,10.54,0,0,0,67,15.53a5.8,5.8,0,0,0,.75,6.11,14,14,0,0,0,5.77.25"/><path class="cls-2" d="M77.38,24.53c-.62-2.78,2.84-.74,0,0m-.39,0"/><path class="cls-2" d="M75.81,29.31c.74,2,1.73,2.14,2.54-.09-.58,1.05-1.58,1.12-2.54.09"/><path class="cls-2" d="M76.06,29.16c-.48-.27-.6-.08-.36.56-.1-.47,0-.66.36-.56"/><path class="cls-2" d="M78.12,29.13c.48-.27.6-.08.36.55.1-.46,0-.65-.36-.55"/><path class="cls-2" d="M76.78,13l.15.06a.94.94,0,0,1-.1-.1ZM66.21,14.5a10.65,10.65,0,0,1,8.45-2.14,8.11,8.11,0,0,0-6-2.1,9.34,9.34,0,0,1,8.2,2.66A9.33,9.33,0,0,1,85,10.26a9,9,0,0,0-6.14,2.3A11.87,11.87,0,0,1,88,14.8l.68.56c.06.38.1.73.14,1.08q.65,6.79-4.73,6.72a11.76,11.76,0,0,1,.76,10.7,12.23,12.23,0,0,1-1.47,2.54A5.53,5.53,0,0,0,84,33.88h-.38a7,7,0,0,1-2.19,3h3.35a9.13,9.13,0,0,0,2.34-.21A4.22,4.22,0,0,0,90,34.25a8.21,8.21,0,0,0,.64-2.59c.05-.68.09-2.08.09-4.22A24.41,24.41,0,0,1,91,22.93a3.56,3.56,0,0,1,3.6-2.88V16.91a3.76,3.76,0,0,1-2.37-.81A3.69,3.69,0,0,1,91,14a25.32,25.32,0,0,1-.32-4.76,6.18,6.18,0,0,0-.26-2.49,5.18,5.18,0,0,0-1-2.51,4.44,4.44,0,0,0-2-1.42,8.64,8.64,0,0,0-2.68-.3H69.41a9.83,9.83,0,0,0-2.33.19,4.49,4.49,0,0,0-1.73.89,4.71,4.71,0,0,0-1.14,1.56,8.6,8.6,0,0,0-.63,2.59c-.23,2.77.18,3.62-.41,6.26a3.64,3.64,0,0,1-1.23,2.08,3.76,3.76,0,0,1-2.37.8v3.14a3.51,3.51,0,0,1,3.56,2.89,25.53,25.53,0,0,1,.32,4.77,36.47,36.47,0,0,0,.26,5,5.1,5.1,0,0,0,1,2.5,4.49,4.49,0,0,0,2,1.42,8.28,8.28,0,0,0,2.68.31h3.21a7,7,0,0,1-2.19-3h-.49a5.15,5.15,0,0,0,.19,2.1,13.62,13.62,0,0,1-1-2.13,14.06,14.06,0,0,1,.43-10.69q-5,.45-4.17-6.79c0-.43.11-.87.19-1.34C65.79,14.84,66,14.67,66.21,14.5Zm-.81,1.87a1.3,1.3,0,0,0-.1.15Z"/><path class="cls-2" d="M89,16.52l-.1-.15.1.15"/><path class="cls-2" d="M80.73,21.89c-2-1-4-5.17-1.27-6.3a10.54,10.54,0,0,1,7.79-.06,5.8,5.8,0,0,1-.75,6.11,14,14,0,0,1-5.77.25"/><path class="cls-1" d="M49.86,16.84a4,4,0,0,0,1.88-.46,3.56,3.56,0,0,0,1.42-1.53,7.18,7.18,0,0,0,.59-2.75q0-.88.06-4a18.92,18.92,0,0,1,.42-4.51,4.9,4.9,0,0,1,1.19-2.16A4.7,4.7,0,0,1,57.48.21,9.89,9.89,0,0,1,59.89,0H61V3h-.6a3.52,3.52,0,0,0-2.65.74A5.38,5.38,0,0,0,57.08,7c0,3,0,4.87-.13,5.69a7.84,7.84,0,0,1-1.12,3.6,7,7,0,0,1-2.75,2.15,5.87,5.87,0,0,1,3.05,2.71A13.47,13.47,0,0,1,57.08,27c0,2.45,0,3.9.08,4.35A3.6,3.6,0,0,0,57.64,33a1.81,1.81,0,0,0,.85.6A8.58,8.58,0,0,0,61,33.8v3H59.9a9,9,0,0,1-2.81-.32A4.53,4.53,0,0,1,55,35a6.22,6.22,0,0,1-1-2.84,47.23,47.23,0,0,1-.19-4.72,20.07,20.07,0,0,0-.39-4.77,3.61,3.61,0,0,0-1.27-1.92,3.86,3.86,0,0,0-2.3-.72Z"/><path class="cls-1" d="M104.61,16.84V20a3.81,3.81,0,0,0-1.88.44A3.58,3.58,0,0,0,101.31,22a7,7,0,0,0-.58,2.75c0,.59,0,1.94-.07,4.06a18.9,18.9,0,0,1-.42,4.52,4.9,4.9,0,0,1-1.19,2.17A4.58,4.58,0,0,1,97,36.61a9.83,9.83,0,0,1-2.41.21H93.5v-3h.6a3.53,3.53,0,0,0,2.65-.73c.42-.48.64-1.55.64-3.2,0-3,0-5,.15-5.82a7.65,7.65,0,0,1,1.22-3.62,6.24,6.24,0,0,1,2.63-2,6.44,6.44,0,0,1-3.12-2.82,13.79,13.79,0,0,1-.88-5.79,37.77,37.77,0,0,0-.17-4.95,2.2,2.2,0,0,0-.82-1.4A4.36,4.36,0,0,0,94.1,3h-.6V0h1.08a8.26,8.26,0,0,1,2.8.35,4.19,4.19,0,0,1,2.07,1.53,6.11,6.11,0,0,1,1,2.83c.11.84.17,2.41.19,4.71a20.07,20.07,0,0,0,.39,4.77,3.56,3.56,0,0,0,1.28,1.93,3.83,3.83,0,0,0,2.29.72"/></svg>