<svg id="Layer_1" data-name="Layer 1" xmlns="http://www.w3.org/2000/svg" viewBox="0 0 239.94 36.9"><defs><style>.cls-1,.cls-2{fill:#424242;}.cls-2{fill-rule:evenodd;}</style></defs><path class="cls-1" d="M224.87,11.45h3.66l3.68,8.9,4.08-8.9h3.65L231,30.86h-3.65l2.89-6.24ZM220,16.78a3.56,3.56,0,0,0-1.39-1.9,4.1,4.1,0,0,0-2.42-.73,4.37,4.37,0,0,0-2.62.82,4.6,4.6,0,0,0-1.31,1.81Zm3.55,2.78H212.1A3.88,3.88,0,0,0,213.42,22a4.16,4.16,0,0,0,2.74.89,4.74,4.74,0,0,0,3.42-1.4l3,1.41a7.14,7.14,0,0,1-2.68,2.36,8.4,8.4,0,0,1-3.72.77,7.32,7.32,0,0,1-5.43-2.11,7.18,7.18,0,0,1-2.09-5.27,7.41,7.41,0,0,1,2.09-5.39A7.06,7.06,0,0,1,216,11.1a7.34,7.34,0,0,1,5.46,2.14,7.72,7.72,0,0,1,2.1,5.65ZM193.81,6h3.56V17.31l5.27-5.86h4.45L201,18.24l6.86,7.43h-4.44l-6-6.56v6.56h-3.56Zm-16.1,5.49h3.56v1.46a8.61,8.61,0,0,1,2.21-1.41,5.42,5.42,0,0,1,2-.4,4.89,4.89,0,0,1,3.59,1.47,5.07,5.07,0,0,1,1.25,3.71v9.39h-3.54V19.45a15.08,15.08,0,0,0-.23-3.37,2.32,2.32,0,0,0-.79-1.27,2.25,2.25,0,0,0-1.4-.44,2.61,2.61,0,0,0-1.86.72,3.84,3.84,0,0,0-1.08,2,16.53,16.53,0,0,0-.16,2.88v5.7h-3.56Zm-10.39,3a3.68,3.68,0,0,0-2.78,1.15,4.11,4.11,0,0,0-1.1,3,4.15,4.15,0,0,0,1.09,3,3.92,3.92,0,0,0,5.56,0,4.16,4.16,0,0,0,1.11-3,4.1,4.1,0,0,0-1.09-3A3.7,3.7,0,0,0,167.32,14.45Zm-.06-3.35a7.55,7.55,0,0,1,3.79,1,7.1,7.1,0,0,1,2.77,2.72,7.26,7.26,0,0,1,1,3.72,7.52,7.52,0,0,1-1,3.75A7.3,7.3,0,0,1,171.09,25a7.57,7.57,0,0,1-3.81,1,7.13,7.13,0,0,1-5.23-2.17,7.18,7.18,0,0,1-2.17-5.28,7.46,7.46,0,0,1,7.38-7.47Zm-31.88.35h3.56v1.66a6.08,6.08,0,0,1,2-1.51,6,6,0,0,1,2.44-.5,4.5,4.5,0,0,1,2.41.66,4.63,4.63,0,0,1,1.73,1.92,5.78,5.78,0,0,1,2.09-1.92,5.69,5.69,0,0,1,2.71-.66,5,5,0,0,1,2.67.71,3.92,3.92,0,0,1,1.66,1.84,9.68,9.68,0,0,1,.51,3.69v8.33h-3.56V18.48a6,6,0,0,0-.61-3.26,2.1,2.1,0,0,0-1.83-.85,2.77,2.77,0,0,0-1.66.52,3.07,3.07,0,0,0-1.09,1.44,8.72,8.72,0,0,0-.36,3v6.39h-3.56V18.81a9.6,9.6,0,0,0-.28-2.76,2.55,2.55,0,0,0-.85-1.27,2.31,2.31,0,0,0-1.37-.41,2.71,2.71,0,0,0-1.63.52,3.2,3.2,0,0,0-1.1,1.48,9.18,9.18,0,0,0-.36,3v6.3h-3.56Zm-5.11,5.68a6.06,6.06,0,0,0-1.08-2.34,4.94,4.94,0,0,0-1.86-1.41,5.67,5.67,0,0,0-2.43-.54,5.28,5.28,0,0,0-3.62,1.34,6.13,6.13,0,0,0-1.68,2.95Zm0,3.82,1.54.82A8.48,8.48,0,0,1,130,24.16a6.93,6.93,0,0,1-2.24,1.38A7.79,7.79,0,0,1,125,26a6.84,6.84,0,0,1-5.46-2.28,7.65,7.65,0,0,1-2-5.14,7.49,7.49,0,0,1,1.67-4.81,6.81,6.81,0,0,1,5.65-2.69,7.07,7.07,0,0,1,5.83,2.75,7.63,7.63,0,0,1,1.57,4.86H119.42a5.78,5.78,0,0,0,1.59,4,5.11,5.11,0,0,0,3.8,1.58,6.16,6.16,0,0,0,2.12-.38,5.76,5.76,0,0,0,1.76-1A8.54,8.54,0,0,0,130.25,21Zm-23.48-8.08a5.51,5.51,0,0,0-2.82.75,5.31,5.31,0,0,0-2,2.1,5.7,5.7,0,0,0,0,5.72A5.58,5.58,0,0,0,104,23.57a5.46,5.46,0,0,0,2.78.76,5.63,5.63,0,0,0,2.84-.76,5.28,5.28,0,0,0,2.07-2,5.83,5.83,0,0,0,.72-2.9,5.6,5.6,0,0,0-1.63-4.11A5.37,5.37,0,0,0,106.77,12.87ZM114.09,6V25.67h-1.82V23.22a7.7,7.7,0,0,1-2.58,2.1,7.07,7.07,0,0,1-3.12.7,6.93,6.93,0,0,1-5.15-2.19,7.32,7.32,0,0,1-2.13-5.31,7.16,7.16,0,0,1,2.15-5.24,7,7,0,0,1,5.18-2.18,6.68,6.68,0,0,1,3.17.75,7.14,7.14,0,0,1,2.48,2.23V6Zm-25,6.94a5.29,5.29,0,0,0-3.92,1.67,5.62,5.62,0,0,0-1.63,4.07,5.81,5.81,0,0,0,.74,2.86,5.24,5.24,0,0,0,2,2.05,5.7,5.7,0,0,0,5.58,0,5.24,5.24,0,0,0,2-2.05,5.71,5.71,0,0,0,.75-2.86A5.6,5.6,0,0,0,93,14.57,5.27,5.27,0,0,0,89.1,12.9Zm0-1.8a7,7,0,0,1,5.45,2.38,7.32,7.32,0,0,1,2,5.12,7.34,7.34,0,0,1-2.08,5.19,7.53,7.53,0,0,1-10.7,0,7.56,7.56,0,0,1-.11-10.3A7.07,7.07,0,0,1,89.11,11.1ZM78.86,14.4l-1.45.91a6.13,6.13,0,0,0-5.16-2.49,6,6,0,0,0-4.33,1.66,5.44,5.44,0,0,0-1.73,4.05,5.7,5.7,0,0,0,.8,2.92,5.49,5.49,0,0,0,2.18,2.12,6.6,6.6,0,0,0,8.24-1.73l1.45.95a6.77,6.77,0,0,1-2.75,2.38,8.82,8.82,0,0,1-3.92.85,7.82,7.82,0,0,1-5.62-2.14,7,7,0,0,1-2.22-5.21,7.47,7.47,0,0,1,3.9-6.58,8.43,8.43,0,0,1,4.08-1,8.68,8.68,0,0,1,2.74.43,7.76,7.76,0,0,1,2.23,1.12A6.15,6.15,0,0,1,78.86,14.4Z"/><path class="cls-2" d="M15.44,16.52l.1-.15-.1.15"/><path class="cls-2" d="M23.68,21.89c2-1,4.05-5.17,1.27-6.3a10.54,10.54,0,0,0-7.79-.06,5.8,5.8,0,0,0,.75,6.11,14,14,0,0,0,5.77.25"/><path class="cls-2" d="M27.52,24.53c-.62-2.78,2.84-.74,0,0m-.39,0"/><path class="cls-2" d="M26,29.31c.74,2,1.73,2.14,2.54-.09-.58,1.05-1.58,1.12-2.54.09"/><path class="cls-2" d="M26.2,29.16c-.48-.27-.6-.08-.36.56-.1-.47,0-.66.36-.56"/><path class="cls-2" d="M28.26,29.13c.48-.27.6-.08.36.55.1-.46,0-.65-.36-.55"/><path class="cls-2" d="M26.92,13l.15.06-.1-.1ZM16.35,14.5a10.65,10.65,0,0,1,8.45-2.14,8.11,8.11,0,0,0-6-2.1A9.34,9.34,0,0,1,27,12.92a9.33,9.33,0,0,1,8.19-2.66A9,9,0,0,0,29,12.56a11.87,11.87,0,0,1,9.13,2.24l.68.56c.06.38.1.73.14,1.08q.64,6.79-4.73,6.72A11.76,11.76,0,0,1,35,33.86a12.23,12.23,0,0,1-1.47,2.54,5.53,5.53,0,0,0,.57-2.52h-.38a7,7,0,0,1-2.19,3h3.35a9.13,9.13,0,0,0,2.34-.21A4.47,4.47,0,0,0,39,35.8a4.65,4.65,0,0,0,1.15-1.55,8.52,8.52,0,0,0,.63-2.59c0-.68.09-2.08.09-4.22a24.41,24.41,0,0,1,.32-4.51,3.56,3.56,0,0,1,3.6-2.88V16.91a3.76,3.76,0,0,1-2.37-.81A3.69,3.69,0,0,1,41.15,14a25.32,25.32,0,0,1-.32-4.76,6.49,6.49,0,0,0-.25-2.49,5.28,5.28,0,0,0-1-2.51,4.44,4.44,0,0,0-2-1.42,8.64,8.64,0,0,0-2.68-.3H19.55a9.83,9.83,0,0,0-2.33.19,4.49,4.49,0,0,0-1.73.89,4.56,4.56,0,0,0-1.13,1.56,8.29,8.29,0,0,0-.64,2.59c-.23,2.77.18,3.62-.41,6.26a3.64,3.64,0,0,1-1.23,2.08,3.76,3.76,0,0,1-2.37.8v3.14a3.65,3.65,0,0,1,2.35.81,3.67,3.67,0,0,1,1.21,2.08,25.53,25.53,0,0,1,.32,4.77,36.47,36.47,0,0,0,.26,5,5.1,5.1,0,0,0,1,2.5,4.49,4.49,0,0,0,2,1.42,8.28,8.28,0,0,0,2.68.31h3.21a7,7,0,0,1-2.19-3h-.49a5.15,5.15,0,0,0,.19,2.1,13.62,13.62,0,0,1-1-2.13,14.06,14.06,0,0,1,.43-10.69q-5,.45-4.17-6.79c.05-.43.11-.87.19-1.34C15.93,14.84,16.14,14.67,16.35,14.5Zm-.81,1.87-.1.15Z"/><path class="cls-2" d="M39.11,16.52l-.1-.15.1.15"/><path class="cls-2" d="M30.87,21.89c-2-1-4.05-5.17-1.27-6.3a10.54,10.54,0,0,1,7.79-.06,5.8,5.8,0,0,1-.75,6.11,14,14,0,0,1-5.77.25"/><path class="cls-1" d="M0,16.84a4,4,0,0,0,1.88-.46A3.56,3.56,0,0,0,3.3,14.85a7.18,7.18,0,0,0,.59-2.75q0-.88.06-4a18.92,18.92,0,0,1,.42-4.51A4.9,4.9,0,0,1,5.56,1.38,4.7,4.7,0,0,1,7.62.21,9.89,9.89,0,0,1,10,0h1.08V3h-.6a3.52,3.52,0,0,0-2.65.74A5.38,5.38,0,0,0,7.22,7c0,3,0,4.87-.13,5.69A7.84,7.84,0,0,1,6,16.25,7,7,0,0,1,3.22,18.4a5.87,5.87,0,0,1,3,2.71,13.47,13.47,0,0,1,1,5.93c0,2.45,0,3.9.08,4.35A3.6,3.6,0,0,0,7.78,33a1.81,1.81,0,0,0,.85.6,8.58,8.58,0,0,0,2.48.22v3H10a9,9,0,0,1-2.81-.32A4.53,4.53,0,0,1,5.16,35a6.22,6.22,0,0,1-1-2.84A47.23,47.23,0,0,1,4,27.39a20.07,20.07,0,0,0-.39-4.77A3.61,3.61,0,0,0,2.3,20.7,3.86,3.86,0,0,0,0,20Z"/><path class="cls-1" d="M54.75,16.84V20a3.81,3.81,0,0,0-1.88.44A3.58,3.58,0,0,0,51.45,22a7,7,0,0,0-.58,2.75c0,.59,0,1.94-.07,4.06a18.9,18.9,0,0,1-.42,4.52,4.9,4.9,0,0,1-1.19,2.17,4.58,4.58,0,0,1-2.06,1.15,9.83,9.83,0,0,1-2.41.21H43.64v-3h.6a3.53,3.53,0,0,0,2.65-.73c.42-.48.64-1.55.64-3.2,0-3,0-5,.15-5.82a7.65,7.65,0,0,1,1.22-3.62,6.24,6.24,0,0,1,2.63-2,6.44,6.44,0,0,1-3.12-2.82,13.79,13.79,0,0,1-.88-5.79,37.77,37.77,0,0,0-.17-4.95,2.2,2.2,0,0,0-.82-1.4A4.36,4.36,0,0,0,44.24,3h-.6V0h1.08a8.26,8.26,0,0,1,2.8.35,4.19,4.19,0,0,1,2.07,1.53,6.11,6.11,0,0,1,1,2.83c.11.84.17,2.41.19,4.71a20.07,20.07,0,0,0,.39,4.77,3.56,3.56,0,0,0,1.28,1.93,3.83,3.83,0,0,0,2.29.72"/></svg>